<svg fill="none" height="48" viewBox="0 0 40 48" width="40" xmlns="http://www.w3.org/2000/svg"><path d="m20.0001 4c-11.0458 0-20.0001 8.9543-20.0001 20.0001 0 11.0457 8.9543 20.0001 20.0001 20.0001 9.91 0 18.1366-7.2077 19.7235-16.6668h-.1435c-1.4802 5.7508-6.7005 10.0001-12.9133 10.0001-7.3638 0-13.3334-5.9696-13.3334-13.3334 0-7.3639 5.9696-13.3334 13.3334-13.3334 6.2128 0 11.4331 4.2492 12.9133 10h.1435c-1.5869-9.4591-9.8135-16.6667-19.7235-16.6667z" fill="#a4bcfd"/><g fill="#3538cd"><path d="m0 24.0001c0-11.0458 8.95434-20.0001 20.0001-20.0001 9.91 0 18.1366 7.2076 19.7235 16.6667h-13.4769c-1.4801-5.7508-6.7005-10-12.9133-10-7.36384 0-13.3334 5.9696-13.3334 13.3334z"/><path d="m0 24.0002c0 11.0457 8.95434 20 20.0001 20 9.91 0 18.1366-7.2076 19.7235-16.6667h-13.4769c-1.4801 5.7508-6.7005 10.0001-12.9133 10.0001-7.36384 0-13.3334-5.9696-13.3334-13.3334z"/></g></svg>